Coordinates
version=1
nRows=23
nColumns=23
inDegrees=yes

Units are S.I. units (second, meters, Newtons, ...)
If the header above contains a line with 'inDegrees', this indicates whether rotational values are in degrees (yes) or radians (no).

endheader
time	pelvis_tilt	pelvis_list	pelvis_rotation	pelvis_tx	pelvis_ty	pelvis_tz	hip_flexion_r	hip_adduction_r	hip_rotation_r	knee_angle_r	knee_angle_r_beta	ankle_angle_r	subtalar_angle_r	mtp_angle_r	hip_flexion_l	hip_adduction_l	hip_rotation_l	knee_angle_l	knee_angle_l_beta	ankle_angle_l	subtalar_angle_l	mtp_angle_l
      7.50000000	      2.98560251	     -9.28774393	     -4.76915535	      2.44958227	      0.89399907	      1.09065841	     18.50363411	     10.98544923	     -8.20012019	     46.12334817	      0.80500429	     21.32765048	     -7.04885049	      0.00000000	      8.48278799	    -13.51116689	      0.28992765	     88.84474686	      1.55063336	      3.09443695	    -25.62616405	      0.00000000
      7.50666667	      2.97448209	     -9.07425437	     -4.50498436	      2.44833780	      0.89397283	      1.09052519	     17.37958373	     10.74700412	     -7.95035142	     46.10144778	      0.80462205	     22.33849126	     -6.95994520	      0.00000000	     10.36498035	    -13.07287376	      1.31399838	     89.56957486	      1.56328399	      3.29867456	    -24.96970213	      0.00000000
      7.51333333	      2.19941922	     -8.77927384	     -4.03389713	      2.44711722	      0.89315497	      1.09007350	     17.08740370	     10.09852593	     -8.67055682	     46.14295423	      0.80534648	     23.50651350	     -6.04505743	      0.00000000	     13.26598408	    -12.57271015	      2.54701266	     90.29595536	      1.57596172	      4.22522635	    -23.41540134	      0.00000000
      7.52000000	      1.86884067	     -8.43906111	     -3.71844616	      2.44624573	      0.89373375	      1.08983047	     16.07183418	      9.48628560	     -9.09715143	     45.78206423	      0.79904776	     24.54519690	     -4.76711489	      0.00000000	     15.40891630	    -12.03455819	      3.34638619	     90.46940456	      1.57898898	      4.82759749	    -22.04733515	      0.00000000
      7.52666667	      1.69761908	     -8.04937592	     -3.51352867	      2.44559209	      0.89536218	      1.08980206	     14.67251049	      9.07444878	     -8.93196394	     44.95422447	      0.78459923	     25.13697409	     -4.52893480	      0.00000000	     17.15221484	    -11.44522498	      3.89827173	     90.14398746	      1.57330938	      5.01350793	    -21.41976353	      0.00000000
      7.53333333	      1.58584489	     -7.76827769	     -2.99359822	      2.44522337	      0.89723565	      1.08942222	     13.08624003	      8.42586681	     -9.81765783	     43.97357466	      0.76748366	     25.80626079	     -3.03215645	      0.00000000	     18.88783273	    -11.01607164	      4.52795330	     89.67447546	      1.56511485	      6.06738072	    -19.49614197	      0.00000000
      7.54000000	      1.46390615	     -7.36391117	     -2.65501206	      2.44507348	      0.89979158	      1.08920304	     11.38571677	      7.87208301	    -10.16433186	     42.70627926	      0.74536518	     26.15560811	     -2.24093650	      0.00000000	     20.38241961	    -10.43784549	      4.86814272	     88.73731375	      1.54875829	      6.60994134	    -18.43859160	      0.00000000
      7.54666667	      1.42503641	     -6.95460112	     -2.45508008	      2.44519421	      0.90290559	      1.08927344	      9.47833956	      7.37093408	    -10.41989596	     41.21963929	      0.71941842	     26.40041631	     -1.06184278	      0.00000000	     21.58615888	    -10.00254780	      4.85706786	     87.45295140	      1.52634194	      7.33209887	    -17.27017050	      0.00000000
      7.55333333	      1.28218593	     -6.49260097	     -2.26151410	      2.44550343	      0.90628881	      1.08931274	      7.60800693	      6.87575784	    -10.60601107	     39.54213052	      0.69014037	     26.34389806	     -0.20634250	      0.00000000	     22.76375981	     -9.50500535	      4.73476764	     85.85468922	      1.49844701	      7.98109742	    -16.33685360	      0.00000000
      7.56000000	      1.14745152	     -5.99803352	     -2.13518820	      2.44603324	      0.91001400	      1.08944074	      5.67435974	      6.38319682	    -10.73170524	     37.72390266	      0.65840631	     26.04861617	      0.64324327	      0.00000000	     23.75307020	     -9.03507753	      4.39991747	     83.94214608	      1.46506683	      8.65990587	    -15.50042264	      0.00000000
      7.56666667	      0.93082062	     -5.45480769	     -2.05975304	      2.44675992	      0.91389521	      1.08960212	      3.80675589	      5.86070108	    -10.83097335	     35.82839555	      0.62532347	     25.44880106	      1.42421393	      0.00000000	     24.67559180	     -8.55702323	      3.88723223	     81.74188802	      1.42666508	      9.30893639	    -14.83145301	      0.00000000
      7.57333333	      0.75074865	     -4.87847566	     -2.01834323	      2.44772284	      0.91806692	      1.08980793	      1.87806116	      5.33990312	    -10.85301463	     33.84102845	      0.59063737	     24.62279159	      2.16530809	      0.00000000	     25.38734184	     -8.07186740	      3.23160472	     79.25007229	      1.38317469	      9.95537133	    -14.25026143	      0.00000000
      7.58000000	      0.56586337	     -4.26035924	     -1.99370469	      2.44882423	      0.92237097	      1.08998302	     -0.03208143	      4.76834726	    -10.92059427	     31.82383016	      0.55543062	     23.44841014	      2.79933519	      0.00000000	     25.95418716	     -7.56803556	      2.44040009	     76.48697894	      1.33494962	     10.54157527	    -13.79097796	      0.00000000
      7.58666667	      0.22574820	     -3.60837114	     -1.98328886	      2.45002526	      0.92654611	      1.09011742	     -1.69825557	      4.15576462	    -11.02169862	     29.89744125	      0.52180879	     21.92935133	      3.33998553	      0.00000000	     26.56352651	     -7.03346748	      1.56307024	     73.49184205	      1.28267462	     11.04446266	    -13.43163509	      0.00000000
      7.59333333	      0.10809313	     -2.95977432	     -1.96586263	      2.45142650	      0.93109535	      1.09023596	     -3.60847047	      3.58440963	    -11.01986311	     27.89048695	      0.48678083	     20.19421578	      3.64711108	      0.00000000	     26.76246231	     -6.50694120	      0.59475189	     70.21604850	      1.22550123	     11.50206128	    -13.10292399	      0.00000000
      7.60000000	     -0.26606708	     -2.27855991	     -1.92553610	      2.45278454	      0.93523147	      1.09025434	     -5.09786294	      2.92314419	    -11.24274588	     26.10912277	      0.45569016	     18.08894884	      3.89360576	      0.00000000	     27.15646850	     -5.94438231	     -0.42917576	     66.76265831	      1.16522820	     11.88437224	    -12.73851726	      0.00000000
      7.60666667	     -0.58689680	     -1.62528574	     -1.89932263	      2.45422005	      0.93940747	      1.09024576	     -6.57109967	      2.31032159	    -11.37060710	     24.40287655	      0.42591054	     15.81243043	      3.94814798	      0.00000000	     27.35410968	     -5.41094097	     -1.52491086	     63.08296097	      1.10100537	     12.23211490	    -12.30183185	      0.00000000
      7.61333333	     -0.97477183	     -1.00134341	     -1.88079673	      2.45567988	      0.94342035	      1.09022181	     -7.87098093	      1.73789562	    -11.44816898	     22.82329917	      0.39834172	     13.34209228	      3.79369718	      0.00000000	     27.50299575	     -4.90558200	     -2.68900064	     59.20981588	      1.03340624	     12.56865215	    -11.70398389	      0.00000000
      7.62000000	     -1.43949161	     -0.43793118	     -1.84808386	      2.45709473	      0.94718832	      1.09010245	     -8.97599810	      1.23683841	    -11.44497031	     21.38932141	      0.37331408	     10.65172009	      3.30311568	      0.00000000	     27.64426305	     -4.43327452	     -3.87164567	     55.18734081	      0.96320080	     12.90016480	    -10.84149566	      0.00000000
      7.62666667	     -1.93467676	      0.14789013	     -1.80344134	      2.45844748	      0.95074674	      1.08989029	     -9.85075134	      0.61118385	    -11.78817178	     20.32581924	      0.35475247	      8.09311074	      3.19824001	      0.00000000	     27.70621890	     -3.88546329	     -5.08497795	     50.98389803	      0.88983689	     13.23793617	     -9.83763597	      0.00000000
      7.63333333	     -2.42148380	      0.65418983	     -1.76935714	      2.45974717	      0.95409538	      1.08958911	    -10.61616057	      0.06703357	    -12.03924913	     19.42758459	      0.33907532	      5.40741197	      2.83748874	      0.00000000	     27.67617835	     -3.39476355	     -6.36352893	     46.68934935	      0.81488287	     13.59232155	     -8.51569299	      0.00000000
      7.64000000	     -3.05206406	      1.09591114	     -1.68319026	      2.46093520	      0.95704686	      1.08913317	    -11.05819991	     -0.43639764	    -12.38077028	     18.83324817	      0.32870219	      2.84373474	      2.45453254	      0.00000000	     27.73758095	     -2.86070007	     -7.53591061	     42.31860295	      0.73859896	     13.99525844	     -6.95170523	      0.00000000
      7.64666667	     -3.67799005	      1.50171914	     -1.62672728	      2.46200873	      0.95973185	      1.08857012	    -11.30768861	     -0.99432670	    -12.90906109	     18.60157703	      0.32465877	      0.43442767	      2.24773854	      0.00000000	     27.71424799	     -2.28346534	     -8.67157751	     37.88054665	      0.66114026	     14.35683010	     -5.36154054	      0.00000000
